<svg viewBox="0 0 134 134" width="134" height="134" xmlns="http://www.w3.org/2000/svg"><defs><style>.fig{fill:#0a7af8}</style></defs><path class="fig" d="M53.497 101.249c5.932-8.061 13.842-12.929 16.123-14.145 1.978-1.065 4.715-2.282 7.453-3.347 3.194-1.369 6.693-2.89 7.606-3.802l.608-.609c.76-.608 1.369-1.369 1.369-1.825 0-.456-.609-1.673-4.563-3.955-5.78-3.346-16.732-6.236-27.531-8.974-4.411 9.583-4.867 17.036-4.867 17.036l-2.738-.152c.152-3.803 1.064-11.864 2.433-18.253h-.304c-13.993-3.498-27.378-5.171-27.531-5.171l.153-2.738h.152c1.521 0 14.449 0 29.204 1.977.152-.152.152-.456.304-.76 2.281-6.237 5.323-14.754 17.187-25.554 10.344-9.43 26.619-11.255 33.159-11.56h10.495c-11.712-11.103-27.53-18.1-45.022-18.1-36.049 0-65.253 29.204-65.253 65.253 0 27.53 17.188 51.106 41.372 60.689 0-1.369.152-2.89.457-4.715 1.369-6.845 4.867-14.906 9.734-21.295z" color="currentColor"/><path class="fig" d="M115.708 23.22c-5.476.913-10.952 2.282-13.081 2.89l-.609.152c-20.077 5.932-31.333 15.515-37.265 22.359-2.586 3.042-4.867 6.237-6.997 9.583 7.453 1.217 13.842 2.738 19.317 4.715 8.974 3.042 14.298 6.997 15.971 11.56 1.673 4.411-.608 8.366-1.521 9.735-2.129 3.498-13.385 14.602-25.553 22.511-12.169 7.757-13.233 9.278-15.667 12.473-1.673 2.129-2.434 5.779-2.282 9.886 6.085 1.826 12.473 2.89 19.013 2.89 36.049 0 65.253-29.204 65.253-65.252.152-16.732-6.084-31.942-16.579-43.502z" fill="currentColor"/></svg>